<svg xmlns="http://www.w3.org/2000/svg" width="143.84" height="9.937" viewBox="0 0 143.84 9.937">
  <defs>
    <style>
      .cls-1 {
        fill: #fff;
        fill-rule: evenodd;
      }
    </style>
  </defs>
  <path id="EARVI" class="cls-1" d="M1299.15,93.348h7.47V91.429h-5.32V89.37h4.62V87.45h-4.62V85.461h5.25V83.542h-7.4v9.805Zm32.62,0h2.2l0.9-2.2h4.14l0.9,2.2h2.26l-4.21-9.875h-1.98Zm3.87-4.1,1.3-3.18,1.3,3.18h-2.6Zm32.11,4.1h2.16V90.21h1.67l2.13,3.138h2.52l-2.4-3.5a3.04,3.04,0,0,0,2.1-3.04,3.085,3.085,0,0,0-.84-2.269,3.892,3.892,0,0,0-2.85-.995h-4.49v9.805Zm2.16-5.043V85.489h2.14a1.429,1.429,0,1,1,.05,2.816h-2.19Zm36.01,5.113h1.9l3.97-9.875h-2.33l-2.56,6.906-2.56-6.906h-2.39Zm34.91-.07h2.16V83.542h-2.16v9.805Z" transform="translate(-1299.16 -83.469)"/>
</svg>
