<?xml version="1.0" encoding="utf-8"?>
<!-- Generator: Adobe Illustrator 20.1.0, SVG Export Plug-In . SVG Version: 6.00 Build 0)  -->
<svg version="1.1" id="Layer_1" xmlns="http://www.w3.org/2000/svg" xmlns:xlink="http://www.w3.org/1999/xlink" x="0px" y="0px"
	 viewBox="0 0 257.7 237.4" style="enable-background:new 0 0 257.7 237.4;" xml:space="preserve">
<path d="M62.3,237.4l-18-100.1h-9.4v100.1H0V0h34.9c41.7,0,59.4,23.6,59.4,68.5c0,23.6-6.1,44.9-19.4,53.9l22.3,115H62.3z M34.9,105
	c4.8,0,11.3-0.6,16.5-5.2c5.2-4.5,9.4-13.2,9.4-30S56.6,44,51.4,39.4c-5.2-4.5-11.6-4.8-16.5-4.8V105z"/>
<path d="M172,0h33.9l-36.2,237.4h-34.9L98.7,0h33.9L150,130.5l1.3,10h1.9l1.3-10L172,0z"/>
<path d="M222.8,0h34.9v237.4h-34.9L222.8,0L222.8,0z"/>
</svg>
